<svg width="10" height="6" viewBox="0 0 10 6" fill="none" xmlns="http://www.w3.org/2000/svg">
<path d="M5.00002 5.46668C4.91228 5.46718 4.82531 5.45037 4.74408 5.41719C4.66286 5.38401 4.58898 5.33513 4.52669 5.27334L0.526689 1.27334C0.46453 1.21118 0.415222 1.13739 0.381582 1.05618C0.347942 0.974961 0.330627 0.887916 0.330627 0.800009C0.330627 0.622475 0.401153 0.452212 0.526689 0.326676C0.652224 0.20114 0.822487 0.130615 1.00002 0.130615C1.17756 0.130615 1.34782 0.20114 1.47336 0.326676L5.00002 3.85334L8.52669 0.326676C8.58885 0.264517 8.66264 0.21521 8.74386 0.181569C8.82507 0.147929 8.91212 0.130615 9.00002 0.130615C9.08793 0.130615 9.17497 0.147929 9.25619 0.181569C9.3374 0.21521 9.41119 0.264517 9.47335 0.326676C9.53551 0.388835 9.58482 0.462629 9.61846 0.543844C9.6521 0.625058 9.66942 0.712103 9.66942 0.800009C9.66942 0.887916 9.6521 0.974961 9.61846 1.05618C9.58482 1.13739 9.53551 1.21118 9.47335 1.27334L5.47335 5.27334C5.41106 5.33513 5.33718 5.38401 5.25596 5.41719C5.17473 5.45037 5.08776 5.46718 5.00002 5.46668Z" fill="#A1A5B7"/>
</svg>
