<svg width="8" height="8" viewBox="0 0 8 8" fill="none" xmlns="http://www.w3.org/2000/svg">
<path d="M4.82251 3.99999L6.91668 1.92332C7.02807 1.81038 7.09004 1.65782 7.08894 1.4992C7.08785 1.34057 7.02378 1.18888 6.91085 1.07749C6.79791 0.966097 6.64535 0.904133 6.48672 0.905227C6.3281 0.906321 6.1764 0.970383 6.06501 1.08332L4.00001 3.17749L1.93501 1.12415C1.82572 1.01551 1.67787 0.954525 1.52376 0.954525C1.36966 0.954525 1.22181 1.01551 1.11251 1.12415C1.05784 1.17838 1.01444 1.2429 0.984827 1.31398C0.955212 1.38507 0.939965 1.46131 0.939965 1.53832C0.939965 1.61533 0.955212 1.69157 0.984827 1.76266C1.01444 1.83374 1.05784 1.89826 1.11251 1.95249L3.17751 3.99999L1.08335 6.07665C0.971956 6.18959 0.909992 6.34215 0.911086 6.50078C0.91218 6.6594 0.976243 6.8111 1.08918 6.92249C1.20212 7.03388 1.35468 7.09584 1.51331 7.09475C1.67193 7.09366 1.82362 7.02959 1.93501 6.91665L4.00001 4.82249L6.06501 6.87582C6.17431 6.98447 6.32216 7.04545 6.47626 7.04545C6.63037 7.04545 6.77822 6.98447 6.88751 6.87582C6.94219 6.82159 6.98559 6.75707 7.0152 6.68599C7.04482 6.61491 7.06006 6.53866 7.06006 6.46165C7.06006 6.38465 7.04482 6.3084 7.0152 6.23732C6.98559 6.16623 6.94219 6.10172 6.88751 6.04749L4.82251 3.99999Z" fill="#A1A5B7"/>
</svg>
